<?xml version="1.0" encoding="iso-8859-1"?>
<!-- Generator: Adobe Illustrator 19.0.0, SVG Export Plug-In . SVG Version: 6.00 Build 0)  -->
<svg version="1.1" id="Capa_1" xmlns="http://www.w3.org/2000/svg" xmlns:xlink="http://www.w3.org/1999/xlink" x="0px" y="0px"
	 viewBox="0 0 512 512" style="enable-background:new 0 0 512 512;" xml:space="preserve">
<path style="fill:#12B225;" d="M451,350.2l-4.501,7.5L354.401,512H217.599l-92.098-154.3L121,350.2l21-18.001
	C142.899,332.5,207.7,361,286,361c78.6,0,143.101-28.5,144-28.801L451,350.2z"/>
<path style="fill:#FC1A3A;" d="M121,481C54.833,481,0,427.167,0,361v-15c0-24.814,21.186-45,46-45s45,20.186,45,45v30H61v-30
	c0-8.276-6.724-15-15-15s-16,6.724-16,15v15c0,49.629,41.371,90,91,90c46.699,0,85.225-35.01,89.604-81.431l29.854,2.813
	C234.628,434.301,183.271,481,121,481z"/>
<path style="fill:#009912;" d="M451,350.2l-4.501,7.5L354.401,512H286V361c78.6,0,143.101-28.5,144-28.801L451,350.2z"/>
<path style="fill:#35D344;" d="M451,166v184.2c0,0-7.2,6.299-13.5,10.499C427.301,367.599,356.8,391,286,391
	s-129.901-20.7-149.399-28.5C132.7,361,121,350.2,121,350.2V166c0-41.4,33.6-75,75-75h180C417.4,91,451,124.6,451,166z"/>
<path style="fill:#12B225;" d="M451,166v184.2c0,0-7.2,6.299-13.5,10.499C427.301,367.599,356.8,391,286,391V91h90
	C417.4,91,451,124.6,451,166z"/>
<rect x="301" y="301" style="fill:#1B1B4F;" width="30" height="30"/>
<rect x="241" y="301" style="fill:#25255E;" width="30" height="30"/>
<path style="fill:#12B225;" d="M286,0l-77.701,104.5L286,259.6l77.701-155.1L286,0z"/>
<polygon style="fill:#009912;" points="363.701,104.5 286,259.6 286,0 "/>
<path style="fill:#FEDB41;" d="M136,301c-41.353,0-75-33.647-75-75s33.647-75,75-75s75,33.647,75,75S177.353,301,136,301z"/>
<rect x="121" y="211" style="fill:#25255E;" width="30" height="30"/>
<path style="fill:#FCBF29;" d="M436,301c-41.353,0-75-33.647-75-75s33.647-75,75-75s76,33.647,76,75S477.353,301,436,301z"/>
<rect x="421" y="211" style="fill:#1B1B4F;" width="30" height="30"/>
<g>
</g>
<g>
</g>
<g>
</g>
<g>
</g>
<g>
</g>
<g>
</g>
<g>
</g>
<g>
</g>
<g>
</g>
<g>
</g>
<g>
</g>
<g>
</g>
<g>
</g>
<g>
</g>
<g>
</g>
</svg>
