<?xml version="1.0" encoding="iso-8859-1"?>
<!-- Generator: Adobe Illustrator 19.0.0, SVG Export Plug-In . SVG Version: 6.00 Build 0)  -->
<svg version="1.1" id="Capa_1" xmlns="http://www.w3.org/2000/svg" xmlns:xlink="http://www.w3.org/1999/xlink" x="0px" y="0px"
	 viewBox="0 0 512 512" style="enable-background:new 0 0 512 512;" xml:space="preserve">
<path style="fill:#787780;" d="M164.78,48.386c-22.544-15.317-51.003-21.243-78.273-16.517
	C44.139,39.097,9.262,73.725,1.698,116.107c-5.208,29.288,1.653,58.284,19.326,81.648c11.88,15.698,23.041,33.311,35.126,55.417
	c15.742,28.85,46.892,46.771,79.677,46.771c6.056,0,11.938-0.6,17.658-1.741c8.12-1.609,13.386-9.509,11.762-17.614L164.78,48.386z"
	/>
<path style="fill:#57555C;" d="M510.687,117.907c-6.641-42.529-41.758-77.918-83.978-86.037
	c-27.167-5.222-54.73,0.015-77.626,14.864l-4.432,236.386c-0.22,8.28,6.291,15.171,14.556,15.405l13.416,0.322
	c0.644,0.015,1.302,0.015,1.946,0.015c32.039,0,62.692-17.146,78.726-45.074c12.538-21.827,24.081-39.208,36.311-54.671
	C507.776,176.147,515.266,147.312,510.687,117.907z"/>
<path style="fill:#FEDBAB;" d="M48.21,405.263c-5.574-8.895-3.233-14.615,22.325-32.917c27.913-20.028,74.378-53.326,95.985-131.36
	l38.783,44.036l4.228,1.214c-20.013,70.31-93.527,116.686-138.88,123.138C63.986,410.326,51.795,410.963,48.21,405.263z"/>
<path style="fill:#FEC478;" d="M436.277,408.847c-47.942-8.705-122.538-55.958-138.368-133.774l3.73-0.746l41.607-34.745
	c21.476,79.045,68.32,112.62,96.366,132.735c25.572,18.331,27.928,24.036,22.339,32.961
	C457.982,411.611,443.63,410.191,436.277,408.847z"/>
<path style="fill:#AEADB3;" d="M255.673,0.328c-83.294,0-134.827,51.533-134.827,134.827c0,64.416,29.962,121.644,76.702,148.609
	l13.183,213.826c0.6,7.79,7.191,14.083,14.981,14.083h59.923c7.79,0,14.381-6.293,14.981-14.083l13.183-213.826
	c27.264-15.579,49.438-42.245,62.918-75.502c8.99-22.771,13.783-47.34,13.783-73.106C390.5,51.861,338.967,0.328,255.673,0.328z"/>
<path style="fill:#8B8892;" d="M390.5,135.155c0,25.767-4.793,50.336-13.783,73.106c-13.482,33.257-35.654,59.923-62.918,75.502
	l-13.183,213.826c-0.6,7.79-7.191,14.083-14.981,14.083h-29.962V0.328C338.967,0.328,390.5,51.861,390.5,135.155z"/>
<circle style="fill:#57555C;" cx="195.749" cy="150.138" r="14.981"/>
<circle style="fill:#3C3A41;" cx="315.595" cy="150.138" r="14.981"/>
<g>
</g>
<g>
</g>
<g>
</g>
<g>
</g>
<g>
</g>
<g>
</g>
<g>
</g>
<g>
</g>
<g>
</g>
<g>
</g>
<g>
</g>
<g>
</g>
<g>
</g>
<g>
</g>
<g>
</g>
</svg>
